<?xml version="1.0" encoding="UTF-8" standalone="no"?>
<!DOCTYPE svg PUBLIC "-//W3C//DTD SVG 1.1//EN" "http://www.w3.org/Graphics/SVG/1.1/DTD/svg11.dtd">
<svg width="100%" height="100%" viewBox="0 0 13 17" version="1.1" xmlns="http://www.w3.org/2000/svg" xmlns:xlink="http://www.w3.org/1999/xlink" xml:space="preserve" style="fill-rule:evenodd;clip-rule:evenodd;stroke-linejoin:round;stroke-miterlimit:1.41421;">
    <g id="arrow" transform="matrix(6.12323e-17,-1,1,6.12323e-17,-130.631,995.442)">
        <path d="M994.692,136.914L994.689,136.947L994.686,136.98L994.681,137.012L994.675,137.044L994.667,137.076L994.658,137.107L994.648,137.137L994.637,137.167L994.624,137.196L994.61,137.224L994.595,137.252L994.579,137.279L994.561,137.305L994.542,137.33L994.523,137.354L988.056,142.185L988.029,142.215L988,142.243L987.97,142.268L987.939,142.29L987.907,142.31L987.874,142.328L987.841,142.343L987.807,142.355L987.772,142.365L987.737,142.373L987.702,142.378L987.667,142.381L987.632,142.381L987.596,142.379L987.561,142.374L987.526,142.367L987.509,142.371L987.491,142.374L987.473,142.376L987.454,142.377L987.427,142.375L987.398,142.372L987.369,142.366L987.339,142.358L987.309,142.348L987.278,142.336L987.246,142.323L987.214,142.308L987.183,142.292L987.151,142.275L987.119,142.256L987.087,142.237L987.026,142.198L986.966,142.157L986.91,142.116L986.858,142.076L986.811,142.039L986.771,142.005L986.713,141.956L986.692,141.937L986.692,137.872L986.677,137.888L980.699,137.888L979.692,136.881L980.699,135.874L986.677,135.874L986.692,135.89L986.692,131.821L986.714,131.802L986.775,131.752L986.817,131.719L986.865,131.682L986.918,131.642L986.976,131.601L987.036,131.56L987.099,131.52L987.13,131.501L987.162,131.483L987.194,131.466L987.225,131.45L987.256,131.435L987.287,131.422L987.317,131.41L987.347,131.4L987.375,131.392L987.402,131.386L987.429,131.382L987.454,131.381L987.481,131.382L987.507,131.386L987.532,131.391L987.555,131.399L987.588,131.394L987.622,131.391L987.655,131.391L987.689,131.392L987.722,131.396L987.755,131.402L987.788,131.411L987.821,131.421L987.853,131.434L987.884,131.449L987.915,131.466L987.945,131.486L987.974,131.507L988.002,131.531L988.03,131.557L988.056,131.586L994.522,136.407L994.542,136.431L994.561,136.456L994.578,136.482L994.595,136.509L994.61,136.537L994.624,136.565L994.637,136.595L994.648,136.624L994.658,136.655L994.667,136.686L994.675,136.717L994.681,136.749L994.686,136.782L994.689,136.814L994.692,136.847L994.692,136.881L994.692,136.914ZM986.953,132.603L986.958,132.608L986.964,132.614L986.953,132.603ZM986.959,141.162L986.954,141.168L986.964,141.157L986.959,141.162ZM987.098,132.828L987.138,132.84L987.158,132.845L987.098,132.828ZM987.198,140.903L987.165,140.911L987.221,140.899L987.198,140.903ZM988.192,133.559L988.192,135.89L988.189,135.983L988.181,136.076L988.166,136.167L988.146,136.258L988.121,136.348L988.09,136.435L988.053,136.521L988.011,136.604L987.965,136.684L987.913,136.762L987.857,136.836L987.817,136.881L987.857,136.927L987.913,137.001L987.965,137.078L988.011,137.158L988.053,137.242L988.09,137.327L988.121,137.415L988.146,137.504L988.166,137.595L988.181,137.687L988.189,137.779L988.192,137.872L988.192,140.211L992.649,136.882L988.192,133.559Z" style="fill:rgb(7,104,216);"/>
    </g>
</svg>
