<?xml version="1.0" encoding="UTF-8" standalone="no"?>
<!DOCTYPE svg PUBLIC "-//W3C//DTD SVG 1.1//EN" "http://www.w3.org/Graphics/SVG/1.1/DTD/svg11.dtd">
<svg width="100%" height="100%" viewBox="0 0 15 11" version="1.1" xmlns="http://www.w3.org/2000/svg" xmlns:xlink="http://www.w3.org/1999/xlink" xml:space="preserve" style="fill-rule:evenodd;clip-rule:evenodd;stroke-linejoin:round;stroke-miterlimit:1.41421;">
    <g id="drill-down-arrow" transform="matrix(-1,3.69779e-32,3.69779e-32,1,994.692,-131.381)">
        <path d="M987.429,131.382L987.402,131.386L987.375,131.392L987.347,131.4L987.317,131.41L987.287,131.422L987.256,131.435L987.225,131.45L987.194,131.466L987.162,131.483L987.13,131.501L987.099,131.52L987.036,131.56L986.976,131.601L986.918,131.642L986.865,131.682L986.817,131.719L986.775,131.752L986.714,131.802L986.692,131.821L986.692,135.89L986.677,135.874L980.699,135.874L979.692,136.881L980.699,137.888L986.677,137.888L986.692,137.872L986.692,141.937L986.713,141.956L986.771,142.005L986.811,142.039L986.858,142.076L986.91,142.116L986.966,142.157L987.026,142.198L987.087,142.237L987.119,142.256L987.151,142.275L987.183,142.292L987.214,142.308L987.246,142.323L987.278,142.336L987.309,142.348L987.339,142.358L987.369,142.366L987.398,142.372L987.427,142.375L987.454,142.377L987.473,142.376L987.491,142.374L987.509,142.371L987.526,142.367L987.561,142.374L987.596,142.379L987.632,142.381L987.667,142.381L987.702,142.378L987.737,142.373L987.772,142.365L987.807,142.355L987.841,142.343L987.874,142.328L987.907,142.31L987.939,142.29L987.97,142.268L988,142.243L988.029,142.215L988.056,142.185L994.523,137.354L994.542,137.33L994.561,137.305L994.579,137.279L994.595,137.252L994.61,137.224L994.624,137.196L994.637,137.167L994.648,137.137L994.658,137.107L994.667,137.076L994.675,137.044L994.681,137.012L994.686,136.98L994.689,136.947L994.692,136.914L994.692,136.881L994.692,136.88L994.692,136.847L994.689,136.814L994.686,136.782L994.681,136.749L994.675,136.717L994.667,136.686L994.658,136.655L994.648,136.624L994.637,136.595L994.624,136.565L994.61,136.537L994.595,136.509L994.578,136.482L994.561,136.456L994.542,136.431L994.522,136.407L988.056,131.586L988.03,131.557L988.002,131.531L987.974,131.507L987.945,131.486L987.915,131.466L987.884,131.449L987.853,131.434L987.821,131.421L987.788,131.411L987.755,131.402L987.722,131.396L987.689,131.392L987.655,131.391L987.622,131.391L987.588,131.394L987.555,131.399L987.532,131.391L987.507,131.386L987.481,131.382L987.454,131.381L987.429,131.382ZM987.07,141.275L987.072,141.273L987.074,141.272L987.07,141.275ZM987.203,141.064L987.231,141.058L987.255,141.053L987.203,141.064ZM992.913,136.881L988.034,140.527L988.034,137.872L988.031,137.785L988.022,137.697L988.008,137.611L987.988,137.525L987.963,137.441L987.932,137.359L987.896,137.279L987.854,137.202L987.808,137.127L987.757,137.056L987.701,136.988L987.641,136.924L987.596,136.881L987.641,136.839L987.701,136.775L987.757,136.707L987.808,136.635L987.854,136.561L987.896,136.483L987.932,136.403L987.963,136.321L987.988,136.237L988.008,136.152L988.022,136.065L988.031,135.978L988.034,135.89L988.034,133.243L992.913,136.881ZM987.2,132.692L987.18,132.687L987.147,132.677L987.2,132.692ZM987.073,132.499L987.072,132.497L987.07,132.496L987.073,132.499Z" style="fill:rgb(7,104,216);"/>
    </g>
</svg>
