<?xml version="1.0" encoding="UTF-8" standalone="no"?><!DOCTYPE svg PUBLIC "-//W3C//DTD SVG 1.1//EN" "http://www.w3.org/Graphics/SVG/1.1/DTD/svg11.dtd"><svg width="100%" height="100%" viewBox="0 0 23 19" version="1.1" xmlns="http://www.w3.org/2000/svg" xmlns:xlink="http://www.w3.org/1999/xlink" xml:space="preserve" style="fill-rule:evenodd;clip-rule:evenodd;stroke-linejoin:round;stroke-miterlimit:1.41421;"><path d="M15.272,0l-8.001,0c-3.937,0 -7.271,3.253 -7.271,7.218l0,0.284c0,3.398 2.417,6.253 5.567,7.001l-0.413,2.589c-0.099,0.572 0.176,1.146 0.668,1.449c0.226,0.14 0.489,0.209 0.742,0.209c0.298,0 0.599,-0.182 0.848,-0.37l5,-3.861l2.86,0c3.937,0 7.228,-3.052 7.228,-7.017l0,-0.284c0,-3.965 -3.291,-7.218 -7.228,-7.218Zm0,1.417c3.166,0 5.822,2.612 5.822,5.801l0,0.284c0,3.189 -2.656,5.601 -5.822,5.601l-3.329,0l-5.371,4.144l0.633,-4.014c-3.167,0 -5.799,-2.542 -5.799,-5.731l0,-0.284c0,-3.189 2.699,-5.801 5.865,-5.801l7.846,0" style="fill:#fff;fill-rule:nonzero;"/><path d="M5.574,3.435c-0.168,0 -0.317,-0.122 -0.346,-0.295c-0.033,-0.193 0.096,-0.375 0.287,-0.408c0.241,-0.041 0.488,-0.062 0.736,-0.062c0.194,0 0.351,0.158 0.351,0.354c0,0.196 -0.157,0.354 -0.351,0.354c-0.208,0 -0.416,0.018 -0.618,0.053c-0.019,0.002 -0.039,0.004 -0.059,0.004Z" style="fill:#fff;fill-rule:nonzero;"/><path d="M2.461,7.437c-0.194,0 -0.352,-0.158 -0.352,-0.354l0,-0.054c0,-1.744 1.029,-3.379 2.561,-4.07c0.177,-0.079 0.385,0.001 0.464,0.179c0.08,0.178 0,0.388 -0.177,0.468c-1.283,0.578 -2.145,1.954 -2.145,3.423l0,0.054c0,0.196 -0.157,0.354 -0.351,0.354Z" style="fill:#fff;fill-rule:nonzero;"/><path d="M7.011,6.91c-0.484,0 -0.879,0.397 -0.879,0.885c0,0.489 0.395,0.886 0.879,0.886c0.485,0 0.879,-0.397 0.879,-0.886c0,-0.488 -0.394,-0.885 -0.879,-0.885Zm0,2.479c-0.872,0 -1.582,-0.715 -1.582,-1.594c0,-0.879 0.71,-1.593 1.582,-1.593c0.873,0 1.583,0.714 1.583,1.593c0,0.879 -0.71,1.594 -1.583,1.594Z" style="fill:#fff;fill-rule:nonzero;"/><path d="M11.23,6.91c-0.484,0 -0.879,0.397 -0.879,0.885c0,0.489 0.395,0.886 0.879,0.886c0.485,0 0.879,-0.397 0.879,-0.886c0,-0.488 -0.394,-0.885 -0.879,-0.885Zm0,2.479c-0.872,0 -1.582,-0.715 -1.582,-1.594c0,-0.879 0.71,-1.593 1.582,-1.593c0.873,0 1.582,0.714 1.582,1.593c0,0.879 -0.709,1.594 -1.582,1.594Z" style="fill:#fff;fill-rule:nonzero;"/><path d="M15.449,6.91c-0.485,0 -0.879,0.397 -0.879,0.885c0,0.489 0.394,0.886 0.879,0.886c0.485,0 0.879,-0.397 0.879,-0.886c0,-0.488 -0.394,-0.885 -0.879,-0.885Zm0,2.479c-0.872,0 -1.582,-0.715 -1.582,-1.594c0,-0.879 0.71,-1.593 1.582,-1.593c0.873,0 1.582,0.714 1.582,1.593c0,0.879 -0.709,1.594 -1.582,1.594Z" style="fill:#fff;fill-rule:nonzero;"/></svg>