<?xml version="1.0" encoding="UTF-8" standalone="no"?>
<!DOCTYPE svg PUBLIC "-//W3C//DTD SVG 1.1//EN" "http://www.w3.org/Graphics/SVG/1.1/DTD/svg11.dtd">
<svg width="100%" height="100%" viewBox="0 0 18 16" version="1.1" xmlns="http://www.w3.org/2000/svg" xmlns:xlink="http://www.w3.org/1999/xlink" xml:space="preserve" style="fill-rule:evenodd;clip-rule:evenodd;stroke-linejoin:round;stroke-miterlimit:1.41421;">
    <g transform="matrix(0.409091,0,0,0.4,-283.091,-109.6)">
        <path d="M724,289C722.344,289 721,290.344 721,292C721,293.657 722.344,295 724,295C725.656,295 727,293.657 727,292C727,290.344 725.656,289 724,289ZM714,308C712.094,308 710.174,307.772 708.293,307.323C708.14,307.287 707.983,307.269 707.828,307.269C707.575,307.269 707.322,307.316 707.086,307.412L698.828,310.715L700.174,304.991C700.348,304.257 700.092,303.489 699.516,303.004C695.959,300.009 694,296.1 694,292C694,283.178 702.973,276 714,276C725.028,276 734,283.178 734,292C734,300.822 725.028,308 714,308ZM714,274C701.85,274 692,282.06 692,292C692,296.876 694.379,301.292 698.228,304.533L696,314L707.828,309.27C709.788,309.736 711.855,310 714,310C726.15,310 736,301.942 736,292C736,282.06 726.15,274 714,274ZM714,289C712.344,289 711,290.344 711,292C711,293.657 712.344,295 714,295C715.656,295 717,293.657 717,292C717,290.344 715.656,289 714,289ZM704,289C702.344,289 701,290.344 701,292C701,293.657 702.344,295 704,295C705.656,295 707,293.657 707,292C707,290.344 705.656,289 704,289Z" style="fill:rgb(150,128,105);fill-rule:nonzero;"/>
    </g>
</svg>
