<?xml version="1.0" encoding="UTF-8" standalone="no"?><!DOCTYPE svg PUBLIC "-//W3C//DTD SVG 1.1//EN" "http://www.w3.org/Graphics/SVG/1.1/DTD/svg11.dtd"><svg width="100%" height="100%" viewBox="0 0 8 8" version="1.1" xmlns="http://www.w3.org/2000/svg" xmlns:xlink="http://www.w3.org/1999/xlink" xml:space="preserve" style="fill-rule:evenodd;clip-rule:evenodd;stroke-linejoin:round;stroke-miterlimit:1.41421;"><path d="M3.188,3.187l-0.001,-2.625c0,-0.31 0.253,-0.562 0.563,-0.562c0.31,0 0.562,0.252 0.562,0.562l0,2.625l2.625,0c0.311,0.001 0.563,0.253 0.563,0.563c0,0.31 -0.252,0.562 -0.563,0.562l-2.625,0l0,2.625c0,0.311 -0.252,0.563 -0.562,0.563c-0.31,0 -0.563,-0.252 -0.563,-0.563l0.001,-2.625l-2.625,0c-0.311,0 -0.563,-0.252 -0.563,-0.562c0,-0.31 0.252,-0.562 0.563,-0.563l2.625,0Z" style="fill:#fff;"/></svg>