<?xml version="1.0" encoding="UTF-8" standalone="no"?><!DOCTYPE svg PUBLIC "-//W3C//DTD SVG 1.1//EN" "http://www.w3.org/Graphics/SVG/1.1/DTD/svg11.dtd"><svg width="100%" height="100%" viewBox="0 0 8 8" version="1.1" xmlns="http://www.w3.org/2000/svg" xmlns:xlink="http://www.w3.org/1999/xlink" xml:space="preserve" style="fill-rule:evenodd;clip-rule:evenodd;stroke-linejoin:round;stroke-miterlimit:1.41421;"><rect id="Artboard1" x="0" y="0" width="8" height="8" style="fill:none;"/><clipPath id="_clip1"><rect id="Artboard11" x="0" y="0" width="8" height="8"/></clipPath><g clip-path="url(#_clip1)"><path d="M3.401,3.399l-0.002,-2.8c0,-0.33 0.27,-0.599 0.601,-0.599c0.331,0 0.599,0.269 0.599,0.599l0,2.8l2.8,0c0.332,0.002 0.601,0.27 0.601,0.601c0,0.331 -0.269,0.599 -0.601,0.599l-2.8,0l0,2.8c0,0.332 -0.268,0.601 -0.599,0.601c-0.331,0 -0.601,-0.269 -0.601,-0.601l0.002,-2.8l-2.8,0c-0.332,0 -0.601,-0.268 -0.601,-0.599c0,-0.331 0.269,-0.599 0.601,-0.601l2.8,0Z" style="fill:#0768d8;"/></g></svg>