<?xml version="1.0" encoding="UTF-8" standalone="no"?>
<!DOCTYPE svg PUBLIC "-//W3C//DTD SVG 1.1//EN" "http://www.w3.org/Graphics/SVG/1.1/DTD/svg11.dtd">
<svg width="100%" height="100%" viewBox="0 0 11 11" version="1.1" xmlns="http://www.w3.org/2000/svg" xmlns:xlink="http://www.w3.org/1999/xlink" xml:space="preserve" style="fill-rule:evenodd;clip-rule:evenodd;stroke-linejoin:round;stroke-miterlimit:1.41421;">
    <g id="a-v-icon" transform="matrix(1,0,0,1,-329.555,-271.502)">
        <g transform="matrix(1,0,0,1,65.1256,0.822523)">
            <path d="M275.429,270.68L275.429,281.68L264.429,281.68L264.429,270.68L275.429,270.68ZM274.429,271.68L265.429,271.68L265.429,280.68L274.429,280.68L274.429,271.68Z" style="fill:rgb(11,14,50);"/>
        </g>
        <g transform="matrix(1.79496,0,0,0.897479,-262.777,27.2447)">
            <rect x="330.555" y="275.502" width="1.114" height="1.114" style="fill:rgb(11,14,50);"/>
        </g>
        <g transform="matrix(1.79496,0,0,0.897479,-259.777,27.2447)">
            <rect x="330.555" y="275.502" width="1.114" height="1.114" style="fill:rgb(11,14,50);"/>
        </g>
        <g transform="matrix(1.79496,0,0,0.897479,-256.777,27.2447)">
            <rect x="330.555" y="275.502" width="1.114" height="1.114" style="fill:rgb(11,14,50);"/>
        </g>
        <g transform="matrix(1.79496,0,0,0.897479,-262.777,31.2447)">
            <rect x="330.555" y="275.502" width="1.114" height="1.114" style="fill:rgb(11,14,50);"/>
        </g>
        <g transform="matrix(1.79496,0,0,0.897479,-259.777,31.2447)">
            <rect x="330.555" y="275.502" width="1.114" height="1.114" style="fill:rgb(11,14,50);"/>
        </g>
        <g transform="matrix(1.79496,0,0,0.897479,-256.777,31.2447)">
            <rect x="330.555" y="275.502" width="1.114" height="1.114" style="fill:rgb(11,14,50);"/>
        </g>
    </g>
</svg>
