<?xml version="1.0" encoding="UTF-8" standalone="no"?>
<!DOCTYPE svg PUBLIC "-//W3C//DTD SVG 1.1//EN" "http://www.w3.org/Graphics/SVG/1.1/DTD/svg11.dtd">
<svg width="100%" height="100%" viewBox="0 0 12 12" version="1.1" xmlns="http://www.w3.org/2000/svg" xmlns:xlink="http://www.w3.org/1999/xlink" xml:space="preserve" style="fill-rule:evenodd;clip-rule:evenodd;stroke-linejoin:round;stroke-miterlimit:1.41421;">
    <g transform="matrix(0.375,0,0,0.375,-190.5,-120)">
        <path d="M515.322,330.294C515.51,330.105 515.761,330.001 516.027,330.001C516.294,330.001 516.545,330.105 516.747,330.308L519.629,333.082C520.006,333.459 520.508,333.666 521.041,333.666C521.574,333.666 522.075,333.459 522.448,333.087C522.83,332.709 523.041,332.204 523.041,331.667L523.041,322.999C523.041,322.533 523.367,322.158 523.793,322.048C523.871,322.028 523.945,322 524.029,322C524.055,322 524.078,322.013 524.104,322.015C524.613,322.062 525.018,322.478 525.018,322.999L525.018,331.667C525.018,332.205 525.228,332.709 525.607,333.084C525.984,333.459 526.484,333.666 527.016,333.666C527.551,333.666 528.052,333.459 528.418,333.095L531.325,330.294C531.513,330.105 531.764,330.001 532.031,330.001C532.297,330.001 532.548,330.105 532.737,330.295C533.114,330.672 533.125,331.321 532.724,331.72L525.184,339.523C525.16,339.55 525.136,339.576 525.115,339.604C524.815,339.86 524.437,340 524.038,340C523.593,340 523.176,339.826 522.874,339.523L515.322,331.708C514.945,331.332 514.943,330.671 515.322,330.294M521.447,340.926C522.139,341.618 523.059,342 524.038,342C525.017,342 525.937,341.618 526.63,340.926C526.672,340.883 526.71,340.837 526.743,340.789L534.151,333.122C535.283,331.987 535.283,330.011 534.151,328.88C533.585,328.314 532.832,328.001 532.031,328.001C531.229,328.001 530.476,328.314 529.924,328.866L527.018,331.667L527.018,323L527.029,323C527.029,321.346 525.683,320 524.029,320C522.375,320 521.029,321.346 521.029,323L521.041,323L521.028,331.653L518.148,328.88C517.582,328.314 516.829,328.001 516.027,328.001C515.226,328.001 514.473,328.314 513.908,328.879C513.342,329.445 513.029,330.198 513.029,331C513.029,331.802 513.342,332.556 513.895,333.11L521.447,340.926ZM538,349C538,349.552 537.551,350 537,350L511,350C510.448,350 510,349.552 510,349L510,341C510,339.897 510.897,339 512,339C513.102,339 514,339.897 514,341L514,343C514,344.654 515.345,346 517,346L531,346C532.654,346 534,344.654 534,343L534,341C534,339.897 534.897,339 536,339C537.102,339 538,339.897 538,341L538,349ZM536,337C533.794,337 532,338.795 532,341L532,343C532,343.552 531.551,344 531,344L517,344C516.448,344 516,343.552 516,343L516,341C516,338.795 514.206,337 512,337C509.794,337 508,338.795 508,341L508,349C508,350.654 509.345,352 511,352L537,352C538.654,352 540,350.654 540,349L540,341C540,338.795 538.206,337 536,337" style="fill:rgb(16,30,66);fill-rule:nonzero;"/>
    </g>
</svg>
