<?xml version="1.0" encoding="UTF-8" standalone="no"?>
<!DOCTYPE svg PUBLIC "-//W3C//DTD SVG 1.1//EN" "http://www.w3.org/Graphics/SVG/1.1/DTD/svg11.dtd">
<svg width="100%" height="100%" viewBox="0 0 12 12" version="1.1" xmlns="http://www.w3.org/2000/svg" xmlns:xlink="http://www.w3.org/1999/xlink" xml:space="preserve" style="fill-rule:evenodd;clip-rule:evenodd;stroke-linejoin:round;stroke-miterlimit:1.41421;">
    <g transform="matrix(0.374977,0,0,0.374977,-142.491,-119.992)">
        <path d="M392,350L383,350.001C382.733,350.001 382.482,349.896 382.293,349.708C382.104,349.52 382,349.268 382,349.001L382,340C382,339.448 382.449,339 383,339C383.552,339 384,339.448 384,340L384,344C384,344.401 384.24,344.764 384.61,344.921C384.979,345.076 385.407,344.997 385.696,344.719L391.293,339.295C391.67,338.916 392.33,338.917 392.707,339.294C393.097,339.685 393.097,340.318 392.696,340.719L387.282,346.304C387.003,346.593 386.923,347.021 387.079,347.39C387.235,347.76 387.599,348 388,348L392,348C392.552,348 393,348.449 393,349C393,349.552 392.552,350 392,350M392,346L390.362,346L394.121,342.123C395.291,340.953 395.291,339.05 394.121,337.879C392.988,336.748 391.001,336.759 389.89,337.869L386,341.639L386,340C386,338.346 384.654,337 383,337C381.346,337.001 380,338.347 380,340L380,349.001C380,349.802 380.312,350.556 380.879,351.122C381.445,351.688 382.199,352.001 383,352.001L392,352C393.654,352 395,350.654 395,349C395,347.346 393.654,346 392,346M410,349.001C410,349.268 409.896,349.52 409.707,349.708C409.518,349.896 409.267,350.001 409,350.001L400,350C399.448,350 399,349.552 399,349C399,348.449 399.448,348 400,348L404,348C404.401,348 404.765,347.76 404.921,347.39C405.077,347.021 404.997,346.593 404.718,346.304L399.293,340.708C398.903,340.318 398.903,339.685 399.293,339.295C399.669,338.918 400.318,338.903 400.718,339.305L406.304,344.719C406.593,344.997 407.02,345.076 407.39,344.921C407.76,344.764 408,344.401 408,344L408,340C408,339.448 408.448,339 409,339C409.551,339 410,339.448 410,340L410,349.001ZM409,337C407.346,337 406,338.346 406,340L406,341.639L402.122,337.881C400.989,336.746 399.012,336.747 397.879,337.88C396.709,339.05 396.709,340.953 397.868,342.112L401.638,346L400,346C398.346,346 397,347.346 397,349C397,350.654 398.346,352 400,352L409,352.001C409.801,352.001 410.555,351.688 411.121,351.122C411.687,350.556 412,349.802 412,349.001L412,340C412,338.347 410.654,337.001 409,337M410,332C410,332.551 409.552,332.999 409,333C408.448,333 408,332.551 408,332L408,328C408,327.599 407.76,327.236 407.39,327.079C407.264,327.026 407.132,327 407,327C406.745,327 406.494,327.098 406.304,327.281L400.707,332.706C400.33,333.084 399.671,333.084 399.293,332.706C398.903,332.316 398.903,331.682 399.304,331.281L404.718,325.696C404.997,325.407 405.077,324.979 404.921,324.61C404.765,324.24 404.401,324 404,324L400,324C399.448,324 399,323.551 399,323C399,322.448 399.448,322 400,322L409,321.999C409.267,321.999 409.518,322.104 409.707,322.292C409.896,322.481 410,322.732 410,322.999L410,332ZM411.121,320.878C410.555,320.311 409.801,319.999 409,319.999L400,320C398.346,320 397,321.346 397,323C397,324.654 398.346,326 400,326L401.638,326L397.879,329.877C396.709,331.048 396.709,332.95 397.879,334.121C399.013,335.254 401,335.241 402.11,334.132L406,330.361L406,332C406,333.654 407.346,335 409,335C410.654,335 412,333.653 412,332L412,322.999C412,322.198 411.687,321.444 411.121,320.878M392,324L388,324C387.599,324 387.235,324.24 387.079,324.61C386.923,324.979 387.003,325.407 387.282,325.696L392.707,331.292C393.097,331.682 393.097,332.316 392.707,332.706C392.33,333.085 391.68,333.095 391.282,332.695L385.696,327.281C385.407,327.002 384.979,326.922 384.61,327.079C384.24,327.236 384,327.599 384,328L384,332C384,332.551 383.552,333 383,333C382.448,332.999 382,332.551 382,332L382,322.999C382,322.732 382.104,322.481 382.293,322.292C382.482,322.104 382.733,321.999 383,321.999L392,322C392.552,322 393,322.448 393,323C393,323.551 392.552,324 392,324M392,320L383,319.999C382.199,319.999 381.445,320.311 380.879,320.878C380.312,321.444 380,322.198 380,322.999L380,332C380,333.653 381.346,335 383,335C384.654,335 386,333.654 386,332L386,330.361L389.879,334.12C391.011,335.252 392.987,335.254 394.121,334.12C395.291,332.95 395.291,331.048 394.132,329.888L390.362,326L392,326C393.654,326 395,324.654 395,323C395,321.346 393.654,320 392,320" style="fill:rgb(16,30,66);fill-rule:nonzero;"/>
    </g>
</svg>
