<?xml version="1.0" encoding="UTF-8" standalone="no"?><!DOCTYPE svg PUBLIC "-//W3C//DTD SVG 1.1//EN" "http://www.w3.org/Graphics/SVG/1.1/DTD/svg11.dtd"><svg width="100%" height="100%" viewBox="0 0 9 10" version="1.1" xmlns="http://www.w3.org/2000/svg" xmlns:xlink="http://www.w3.org/1999/xlink" xml:space="preserve" style="fill-rule:evenodd;clip-rule:evenodd;stroke-linejoin:round;stroke-miterlimit:1.41421;"><g id="graphics-icon"><path d="M6,0.754l-3.75,0l0.75,-0.754l2.25,0l0.75,0.754Z" style="fill:#0b0d32;"/><path d="M4.125,3.004c1.035,0 1.875,0.84 1.875,1.875c0,1.035 -0.84,1.875 -1.875,1.875c-1.035,0 -1.875,-0.84 -1.875,-1.875c0,-1.035 0.84,-1.875 1.875,-1.875Zm0,0.937c0.517,0 0.938,0.42 0.938,0.938c0,0.517 -0.421,0.937 -0.938,0.937c-0.517,0 -0.938,-0.42 -0.938,-0.937c0.001,-0.518 0.421,-0.938 0.938,-0.938Z" style="fill:#0b0d32;"/><path d="M8.25,0.754l0,8.25l-8.25,0l0,-8.25l8.25,0Zm-0.75,0.75l-6.75,0l0,6.75l6.75,0l0,-6.75Z" style="fill:#0b0d32;"/></g></svg>