<?xml version="1.0" encoding="UTF-8" standalone="no"?><!DOCTYPE svg PUBLIC "-//W3C//DTD SVG 1.1//EN" "http://www.w3.org/Graphics/SVG/1.1/DTD/svg11.dtd"><svg width="100%" height="100%" viewBox="0 0 15 15" version="1.1" xmlns="http://www.w3.org/2000/svg" xmlns:xlink="http://www.w3.org/1999/xlink" xml:space="preserve" style="fill-rule:evenodd;clip-rule:evenodd;stroke-linejoin:round;stroke-miterlimit:1.41421;"><circle id="check-circle" cx="7.125" cy="7.125" r="7.125" style="fill:#189e44;"/><path id="checkmark-icon" d="M6.09,8.535l3.902,-4.245c0.097,-0.106 0.228,-0.165 0.366,-0.165c0.137,0 0.268,0.059 0.365,0.165c0.097,0.105 0.152,0.249 0.152,0.398c0,0.149 -0.055,0.293 -0.152,0.398c-0.785,0.855 -4.63,5.039 -4.63,5.039l-0.003,-0.003l-0.002,0.003c0,0 -1.776,-1.932 -2.561,-2.787c-0.097,-0.105 -0.152,-0.249 -0.152,-0.398c0,-0.149 0.055,-0.292 0.152,-0.398c0.097,-0.106 0.228,-0.165 0.365,-0.165c0.138,0 0.269,0.059 0.366,0.165l1.832,1.993Z" style="fill:#fff;"/></svg>