<?xml version="1.0" encoding="UTF-8" standalone="no"?>
<!DOCTYPE svg PUBLIC "-//W3C//DTD SVG 1.1//EN" "http://www.w3.org/Graphics/SVG/1.1/DTD/svg11.dtd">
<svg width="100%" height="100%" viewBox="0 0 9 6" version="1.1" xmlns="http://www.w3.org/2000/svg" xmlns:xlink="http://www.w3.org/1999/xlink" xml:space="preserve" style="fill-rule:evenodd;clip-rule:evenodd;stroke-linejoin:round;stroke-miterlimit:1.41421;">
    <rect id="Artboard2" x="0" y="0" width="9" height="6" style="fill:none;"/>
    <clipPath id="_clip1">
        <rect id="Artboard21" x="0" y="0" width="9" height="6"/>
    </clipPath>
    <g clip-path="url(#_clip1)">
        <rect id="Artboard1" x="0" y="0" width="8.25" height="6" style="fill:none;"/>
        <path id="dropdown-arrow" d="M7.934,0.017L7.972,0.062L7.997,0.093L8.025,0.129L8.054,0.169L8.085,0.212L8.116,0.258L8.146,0.305L8.16,0.329L8.173,0.352L8.186,0.376L8.198,0.4L8.21,0.423L8.22,0.446L8.228,0.469L8.236,0.491L8.242,0.512L8.246,0.533L8.249,0.552L8.25,0.571L8.249,0.592L8.247,0.611L8.242,0.63L8.237,0.647L8.243,0.697L8.243,0.722L8.242,0.747L8.239,0.772L8.234,0.797L8.228,0.822L8.22,0.846L8.21,0.87L8.199,0.894L8.186,0.917L8.172,0.939L8.155,0.961L8.137,0.983L8.118,1.003L8.097,1.023L4.48,5.872L4.462,5.887L4.444,5.901L4.424,5.915L4.404,5.927L4.383,5.938L4.362,5.949L4.34,5.958L4.318,5.967L4.295,5.975L4.271,5.981L4.248,5.987L4.224,5.992L4.2,5.995L4.175,5.998L4.151,5.999L4.126,6L4.125,6L4.1,5.999L4.076,5.998L4.051,5.995L4.027,5.992L4.003,5.987L3.979,5.981L3.956,5.975L3.933,5.967L3.911,5.958L3.889,5.949L3.868,5.938L3.847,5.927L3.827,5.915L3.807,5.902L3.789,5.888L3.77,5.873L0.147,1.023L0.125,1.002L0.104,0.981L0.085,0.958L0.068,0.935L0.053,0.911L0.04,0.886L0.029,0.861L0.019,0.836L0.012,0.81L0.006,0.784L0.002,0.758L0,0.731L0,0.705L0.002,0.678L0.006,0.652L0.011,0.625L0.008,0.613L0.005,0.599L0.004,0.585L0.003,0.571L0.004,0.551L0.007,0.529L0.012,0.508L0.018,0.485L0.025,0.462L0.034,0.439L0.044,0.415L0.055,0.392L0.067,0.368L0.08,0.344L0.094,0.32L0.108,0.296L0.138,0.25L0.168,0.205L0.199,0.163L0.229,0.124L0.257,0.089L0.282,0.059L0.319,0.016L0.333,0L7.92,0L7.934,0.017ZM1.628,1.125L4.125,4.467L6.617,1.125L1.628,1.125L1.628,1.125ZM1.111,0.393L1.109,0.379L1.103,0.354L1.111,0.393ZM7.156,0.334L7.153,0.347L7.165,0.305L7.156,0.334L7.156,0.334ZM0.917,0.203L0.914,0.2L0.91,0.196L0.917,0.203ZM7.33,0.2L7.327,0.202L7.334,0.196L7.33,0.2Z" style="fill:rgb(255,218,71);"/>
    </g>
</svg>
