<?xml version="1.0" encoding="UTF-8" standalone="no"?><!DOCTYPE svg PUBLIC "-//W3C//DTD SVG 1.1//EN" "http://www.w3.org/Graphics/SVG/1.1/DTD/svg11.dtd"><svg width="100%" height="100%" viewBox="0 0 9 6" version="1.1" xmlns="http://www.w3.org/2000/svg" xmlns:xlink="http://www.w3.org/1999/xlink" xml:space="preserve" style="fill-rule:evenodd;clip-rule:evenodd;stroke-linejoin:round;stroke-miterlimit:1.41421;"><rect id="Artboard1" x="0" y="0" width="8.25" height="6" style="fill:none;"/><path id="dropdown-arrow" d="M7.934,0.017l0.038,0.045l0.025,0.031l0.028,0.036l0.029,0.04l0.031,0.043l0.031,0.046l0.03,0.047l0.014,0.024l0.013,0.023l0.013,0.024l0.012,0.024l0.012,0.023l0.01,0.023l0.008,0.023l0.008,0.022l0.006,0.021l0.004,0.021l0.003,0.019l0.001,0.019l-0.001,0.021l-0.002,0.019l-0.005,0.019l-0.005,0.017l0.003,0.025l0.003,0.025l0,0.025l-0.001,0.025l-0.003,0.025l-0.005,0.025l-0.006,0.025l-0.008,0.024l-0.01,0.024l-0.011,0.024l-0.013,0.023l-0.014,0.022l-0.017,0.022l-0.018,0.022l-0.019,0.02l-0.021,0.02l-3.617,4.849l-0.018,0.015l-0.018,0.014l-0.02,0.014l-0.02,0.012l-0.021,0.011l-0.021,0.011l-0.022,0.009l-0.022,0.009l-0.023,0.008l-0.024,0.006l-0.023,0.006l-0.024,0.005l-0.024,0.003l-0.025,0.003l-0.024,0.001l-0.025,0.001l-0.001,0l-0.025,-0.001l-0.024,-0.001l-0.025,-0.003l-0.024,-0.003l-0.024,-0.005l-0.024,-0.006l-0.023,-0.006l-0.023,-0.008l-0.022,-0.009l-0.022,-0.009l-0.021,-0.011l-0.021,-0.011l-0.02,-0.012l-0.02,-0.013l-0.018,-0.014l-0.019,-0.015l-3.623,-4.85l-0.022,-0.021l-0.021,-0.021l-0.019,-0.023l-0.017,-0.023l-0.015,-0.024l-0.013,-0.025l-0.011,-0.025l-0.01,-0.025l-0.007,-0.026l-0.006,-0.026l-0.004,-0.026l-0.002,-0.027l0,-0.026l0.002,-0.027l0.004,-0.026l0.005,-0.027l-0.003,-0.012l-0.003,-0.014l-0.001,-0.014l-0.001,-0.014l0.001,-0.02l0.003,-0.022l0.005,-0.021l0.006,-0.023l0.007,-0.023l0.009,-0.023l0.01,-0.024l0.011,-0.023l0.012,-0.024l0.013,-0.024l0.014,-0.024l0.014,-0.024l0.03,-0.046l0.03,-0.045l0.031,-0.042l0.03,-0.039l0.028,-0.035l0.025,-0.03l0.037,-0.043l0.014,-0.016l7.587,0l0.014,0.017Zm-6.306,1.108l2.497,3.342l2.492,-3.342l-4.989,0Zm-0.517,-0.732l-0.002,-0.014l-0.006,-0.025l0.008,0.039Zm6.045,-0.059l-0.003,0.013l0.012,-0.042l-0.009,0.029Zm-6.239,-0.131l-0.003,-0.003l-0.004,-0.004l0.007,0.007Zm6.413,-0.003l-0.003,0.002l0.007,-0.006l-0.004,0.004Z" style="fill:#0768d8;"/></svg>