<?xml version="1.0" encoding="UTF-8" standalone="no"?>
<!DOCTYPE svg PUBLIC "-//W3C//DTD SVG 1.1//EN" "http://www.w3.org/Graphics/SVG/1.1/DTD/svg11.dtd">
<svg width="100%" height="100%" viewBox="0 0 18 9" version="1.1" xmlns="http://www.w3.org/2000/svg" xmlns:xlink="http://www.w3.org/1999/xlink" xml:space="preserve" style="fill-rule:evenodd;clip-rule:evenodd;stroke-linejoin:round;stroke-miterlimit:1.41421;">
    <g id="Artboard2" transform="matrix(1.5,0,0,2,0,0)">
        <rect x="0" y="0" width="12" height="9" style="fill:none;"/>
        <g transform="matrix(0.375,0,0,0.28125,-70.5001,-162)">
            <path d="M210.293,584.293L200.293,594.293C199.902,594.684 199.902,595.316 200.293,595.707C200.488,595.902 200.744,596 201,596C201.256,596 201.511,595.902 201.707,595.707L211.707,585.707C212.098,585.316 212.098,584.684 211.707,584.293C211.316,583.902 210.684,583.902 210.293,584.293M216.863,584.621L215.931,585.554C215.841,584.125 215.248,582.793 214.227,581.772C213.205,580.749 211.871,580.157 210.441,580.068L211.377,579.138L211.379,579.136C212.111,578.403 213.085,578 214.121,578C215.157,578 216.131,578.403 216.863,579.136C217.596,579.868 218,580.843 218,581.878C218,582.915 217.597,583.889 216.863,584.621M212.813,588.671L200.629,600.855L200.979,599.208C201.041,598.912 200.967,598.606 200.777,598.371C200.587,598.136 200.302,598 200,598L198,598L198,596C198,595.448 197.552,595 197,595L195.423,595L207.316,583.175L207.328,583.186C208.06,582.453 209.034,582.05 210.07,582.05C211.106,582.05 212.08,582.453 212.813,583.186C213.545,583.918 213.949,584.893 213.949,585.929C213.949,586.965 213.546,587.939 212.813,588.671M198.093,603.165L194.369,604.308C194.151,603.672 193.814,603.106 193.353,602.647C192.952,602.245 192.487,601.938 191.997,601.686L193.7,597L196,597L196,599C196,599.553 196.447,600 197,600L198.765,600L198.093,603.165ZM218.277,577.722C217.168,576.611 215.691,576 214.121,576C212.552,576 211.076,576.61 209.967,577.72L192.295,595.291C192.19,595.395 192.11,595.52 192.06,595.658L188.06,606.658C187.931,607.015 188.014,607.414 188.275,607.689C188.467,607.891 188.731,608 189,608C189.098,608 189.196,607.986 189.293,607.956L199.242,604.905C199.398,604.857 199.541,604.772 199.656,604.656L218.277,586.035C219.388,584.926 220,583.448 220,581.878C219.999,580.309 219.388,578.832 218.277,577.722" style="fill:rgb(7,104,216);fill-rule:nonzero;"/>
        </g>
    </g>
</svg>
