<?xml version="1.0" encoding="UTF-8" standalone="no"?><!DOCTYPE svg PUBLIC "-//W3C//DTD SVG 1.1//EN" "http://www.w3.org/Graphics/SVG/1.1/DTD/svg11.dtd"><svg width="100%" height="100%" viewBox="0 0 10 10" version="1.1" xmlns="http://www.w3.org/2000/svg" xmlns:xlink="http://www.w3.org/1999/xlink" xml:space="preserve" style="fill-rule:evenodd;clip-rule:evenodd;stroke-linejoin:round;stroke-miterlimit:1.41421;"><path id="search-loupe" d="M7.732,7.189l-0.544,0.544c0,0 1.321,1.321 1.905,1.904c0.072,0.072 0.17,0.113 0.272,0.113c0.102,0 0.2,-0.041 0.272,-0.113c0.072,-0.072 0.113,-0.17 0.113,-0.272c0,-0.102 -0.041,-0.2 -0.113,-0.272c-0.584,-0.583 -1.905,-1.904 -1.905,-1.904Zm-3.66,0.951c-2.249,0 -4.072,-1.822 -4.072,-4.07c0,-2.248 1.823,-4.07 4.072,-4.07c2.249,0 4.073,1.822 4.073,4.07c0,2.248 -1.824,4.07 -4.073,4.07Zm0,-0.993c-1.7,0 -3.079,-1.377 -3.079,-3.077c0,-1.699 1.379,-3.077 3.079,-3.077c1.701,0 3.079,1.378 3.079,3.077c0,1.7 -1.378,3.077 -3.079,3.077Z" style="fill:#0768d8;"/></svg>