<?xml version="1.0" encoding="UTF-8" standalone="no"?><!DOCTYPE svg PUBLIC "-//W3C//DTD SVG 1.1//EN" "http://www.w3.org/Graphics/SVG/1.1/DTD/svg11.dtd"><svg width="100%" height="100%" viewBox="0 0 19 20" version="1.1" xmlns="http://www.w3.org/2000/svg" xmlns:xlink="http://www.w3.org/1999/xlink" xml:space="preserve" style="fill-rule:evenodd;clip-rule:evenodd;stroke-linejoin:round;stroke-miterlimit:1.41421;"><rect id="Artboard1" x="0" y="0" width="18.75" height="19.5" style="fill:none;"/><clipPath id="_clip1"><rect x="0" y="0" width="18.75" height="19.5"/></clipPath><g clip-path="url(#_clip1)"><g id="send-icon"><path d="M14.693,4.029c-0.147,0 -0.309,0.023 -0.482,0.07l-12.314,3.291c-0.464,0.125 -0.773,0.352 -0.845,0.623c-0.075,0.277 0.083,0.636 0.431,0.984l9.022,9.022c0.29,0.289 0.588,0.449 0.842,0.449c0.484,0 0.698,-0.606 0.768,-0.866l3.283,-12.305c0.117,-0.437 0.089,-0.798 -0.079,-1.017c-0.159,-0.208 -0.428,-0.251 -0.626,-0.251Zm-3.346,15.471c-0.537,0 -1.08,-0.26 -1.572,-0.751l-9.022,-9.022c-0.625,-0.625 -0.873,-1.329 -0.698,-1.981c0.173,-0.646 0.732,-1.127 1.575,-1.353l12.314,-3.291c0.922,-0.247 1.743,-0.038 2.194,0.55c0.368,0.479 0.459,1.159 0.257,1.912l-3.283,12.305c-0.274,1.021 -0.933,1.631 -1.765,1.631Z" style="fill:#fff;fill-rule:nonzero;"/><path d="M12.347,13.838c-0.022,0 -0.044,-0.003 -0.066,-0.008c-0.137,-0.036 -0.22,-0.177 -0.184,-0.315l0.026,-0.101c0.036,-0.139 0.178,-0.22 0.315,-0.185c0.138,0.036 0.221,0.177 0.185,0.315l-0.027,0.101c-0.03,0.116 -0.135,0.193 -0.249,0.193Z" style="fill:#fff;fill-rule:nonzero;"/><path d="M11.629,16.604c-0.021,0 -0.043,-0.003 -0.065,-0.009c-0.138,-0.035 -0.221,-0.176 -0.185,-0.314l0.55,-2.118c0.036,-0.138 0.177,-0.222 0.314,-0.185c0.139,0.035 0.221,0.176 0.185,0.314l-0.55,2.118c-0.03,0.117 -0.135,0.194 -0.249,0.194Z" style="fill:#fff;fill-rule:nonzero;"/><path d="M5.716,14.476c-0.132,0 -0.264,-0.051 -0.365,-0.152c-0.202,-0.201 -0.202,-0.528 0,-0.729l3.466,-3.467c0.202,-0.202 0.528,-0.202 0.73,0c0.202,0.201 0.202,0.528 0,0.73l-3.466,3.466c-0.101,0.101 -0.233,0.152 -0.365,0.152Z" style="fill:#fff;fill-rule:nonzero;"/></g></g></svg>