<?xml version="1.0" encoding="UTF-8" standalone="no"?><!DOCTYPE svg PUBLIC "-//W3C//DTD SVG 1.1//EN" "http://www.w3.org/Graphics/SVG/1.1/DTD/svg11.dtd"><svg width="100%" height="100%" viewBox="0 0 12 9" version="1.1" xmlns="http://www.w3.org/2000/svg" xmlns:xlink="http://www.w3.org/1999/xlink" xml:space="preserve" style="fill-rule:evenodd;clip-rule:evenodd;stroke-linejoin:round;stroke-miterlimit:1.41421;"><rect id="Artboard1" x="0" y="0" width="11.25" height="9" style="fill:none;"/><path id="checkmark-icon" d="M4.073,6.615l5.852,-6.368c0.146,-0.158 0.343,-0.247 0.549,-0.247c0.206,0 0.403,0.089 0.549,0.247c0.145,0.159 0.227,0.374 0.227,0.598c0,0.224 -0.082,0.438 -0.227,0.597c-1.178,1.281 -6.947,7.558 -6.947,7.558l-0.003,-0.004l-0.004,0.004c0,0 -2.664,-2.899 -3.842,-4.18c-0.145,-0.159 -0.227,-0.373 -0.227,-0.597c0,-0.224 0.082,-0.439 0.227,-0.598c0.146,-0.158 0.343,-0.247 0.549,-0.247c0.206,0 0.403,0.089 0.549,0.247l2.748,2.99Z" style="fill:#189e44;"/></svg>