<?xml version="1.0" encoding="UTF-8" standalone="no"?><!DOCTYPE svg PUBLIC "-//W3C//DTD SVG 1.1//EN" "http://www.w3.org/Graphics/SVG/1.1/DTD/svg11.dtd"><svg width="100%" height="100%" viewBox="0 0 18 17" version="1.1" xmlns="http://www.w3.org/2000/svg" xmlns:xlink="http://www.w3.org/1999/xlink" xml:space="preserve" style="fill-rule:evenodd;clip-rule:evenodd;stroke-linejoin:round;stroke-miterlimit:1.41421;"><path d="M13.909,15.675l-1.636,0l0,-1.65c0.226,0 0.409,-0.184 0.409,-0.413c0,-0.227 -0.183,-0.412 -0.409,-0.412l0,-7.425l1.636,0l0,9.9Zm-2.454,-2.475c-0.227,0 -0.41,0.185 -0.41,0.412c0,0.229 0.183,0.413 0.41,0.413l0,1.65l-8.182,0l0,-1.65c0.226,0 0.409,-0.184 0.409,-0.413c0,-0.227 -0.183,-0.412 -0.409,-0.412l0,-7.425l8.182,0l0,7.425Zm-9,0c-0.227,0 -0.41,0.185 -0.41,0.412c0,0.229 0.183,0.413 0.41,0.413l0,1.65l-1.637,0l0,-9.9l1.637,0l0,7.425Zm4.09,-9.075l1.637,0c0.451,0 0.818,0.37 0.818,0.825l-3.273,0c0,-0.455 0.367,-0.825 0.818,-0.825Zm7.364,0.825l-4.091,0c0,-0.911 -0.733,-1.65 -1.636,-1.65l-1.637,0c-0.903,0 -1.636,0.739 -1.636,1.65l-4.091,0c-0.451,0 -0.818,0.37 -0.818,0.825l0,9.9c0,0.455 0.367,0.825 0.818,0.825l13.091,0c0.452,0 0.818,-0.37 0.818,-0.825l0,-9.9c0,-0.455 -0.366,-0.825 -0.818,-0.825Zm-4.909,-3.3c0,-0.455 0.367,-0.825 0.818,-0.825l1.637,0c0.451,0 0.818,0.37 0.818,0.825l-3.273,0Zm8.182,0l-4.091,0c0,-0.911 -0.733,-1.65 -1.636,-1.65l-1.637,0c-0.903,0 -1.636,0.739 -1.636,1.65l-4.091,0c-0.452,0 -0.818,0.37 -0.818,0.825l0,1.237c0,0.229 0.183,0.413 0.409,0.413c0.226,0 0.409,-0.184 0.409,-0.413l0,-1.237l13.091,0l0,9.9l-1.227,0c-0.227,0 -0.41,0.185 -0.41,0.412c0,0.229 0.183,0.413 0.41,0.413l1.227,0c0.451,0 0.818,-0.37 0.818,-0.825l0,-9.9c0,-0.455 -0.367,-0.825 -0.818,-0.825Zm-12.682,7.425l0.818,0c0.226,0 0.409,-0.184 0.409,-0.412c0,-0.228 -0.183,-0.413 -0.409,-0.413l-0.818,0c-0.226,0 -0.409,0.185 -0.409,0.413c0,0.228 0.183,0.412 0.409,0.412Zm0,-1.65l2.455,0c0.226,0 0.409,-0.184 0.409,-0.412c0,-0.228 -0.183,-0.413 -0.409,-0.413l-2.455,0c-0.226,0 -0.409,0.185 -0.409,0.413c0,0.228 0.183,0.412 0.409,0.412Z" style="fill:#3768b2;fill-rule:nonzero;"/></svg>