<?xml version="1.0" encoding="UTF-8" standalone="no"?><!DOCTYPE svg PUBLIC "-//W3C//DTD SVG 1.1//EN" "http://www.w3.org/Graphics/SVG/1.1/DTD/svg11.dtd"><svg width="100%" height="100%" viewBox="0 0 18 14" version="1.1" xmlns="http://www.w3.org/2000/svg" xmlns:xlink="http://www.w3.org/1999/xlink" xml:space="preserve" style="fill-rule:evenodd;clip-rule:evenodd;stroke-linejoin:round;stroke-miterlimit:1.41421;"><path d="M17.182,11.813c0,0.05 -0.007,0.097 -0.015,0.147l-5.051,-5.21l5.051,-5.21c0.008,0.05 0.015,0.097 0.015,0.147l0,10.125Zm-0.818,0.844l-14.728,0c-0.095,0 -0.187,-0.021 -0.272,-0.05l5.098,-5.261l1.405,1.451c0.313,0.321 0.723,0.485 1.133,0.485c0.41,0 0.82,-0.164 1.133,-0.485l1.405,-1.451l5.099,5.261c-0.086,0.029 -0.177,0.05 -0.273,0.05Zm-15.546,-0.843l0,-10.125c0,-0.051 0.007,-0.098 0.015,-0.148l5.051,5.21l-5.051,5.21c-0.008,-0.05 -0.015,-0.097 -0.015,-0.147Zm0.818,-10.969l14.728,0c0.096,0 0.187,0.021 0.272,0.05l-7.082,7.303c-0.148,0.156 -0.345,0.241 -0.554,0.241c-0.209,0 -0.406,-0.085 -0.555,-0.241l-7.081,-7.303c0.085,-0.029 0.177,-0.05 0.272,-0.05Zm14.728,-0.844l-14.728,0c-0.903,0 -1.636,0.755 -1.636,1.688l0,10.125c0,0.932 0.733,1.687 1.636,1.687l14.728,0c0.903,0 1.636,-0.755 1.636,-1.687l0,-10.125c0,-0.933 -0.733,-1.688 -1.636,-1.688Z" style="fill:#3768b2;fill-rule:nonzero;"/></svg>