<?xml version="1.0" encoding="UTF-8" standalone="no"?><!DOCTYPE svg PUBLIC "-//W3C//DTD SVG 1.1//EN" "http://www.w3.org/Graphics/SVG/1.1/DTD/svg11.dtd"><svg width="100%" height="100%" viewBox="0 0 154 200" version="1.1" xmlns="http://www.w3.org/2000/svg" xmlns:xlink="http://www.w3.org/1999/xlink" xml:space="preserve" style="fill-rule:evenodd;clip-rule:evenodd;stroke-linejoin:round;stroke-miterlimit:1.41421;"><path d="M76.563,0c-42.219,0 -76.563,34.347 -76.563,76.563c0,42.218 34.344,76.562 76.563,76.562c42.218,0 76.562,-34.344 76.562,-76.563c0,-42.215 -34.344,-76.562 -76.563,-76.562Zm0.001,12.5c35.381,0 64.062,28.678 64.062,64.063c0,35.387 -28.681,64.062 -64.063,64.062c-35.384,0 -64.062,-28.675 -64.062,-64.063c0,-35.384 28.678,-64.062 64.063,-64.062Z" style="fill:#3768b2;fill-rule:nonzero;"/><path d="M66.444,32.622c-1.61,0 -2.975,-1.237 -3.113,-2.869c-0.14,-1.718 1.141,-3.228 2.86,-3.372c1.197,-0.1 2.409,-0.147 3.628,-0.147c1.725,0 3.125,1.4 3.125,3.125c0,1.725 -1.4,3.125 -3.125,3.125c-1.047,0 -2.088,0.044 -3.116,0.126c-0.084,0.009 -0.172,0.012 -0.259,0.012Z" style="fill:#3768b2;fill-rule:nonzero;"/><path d="M29.356,72.947c-1.725,0 -3.125,-1.4 -3.125,-3.125c0,-16.987 9.982,-32.544 25.425,-39.634c1.563,-0.719 3.422,-0.035 4.144,1.537c0.722,1.569 0.031,3.422 -1.537,4.141c-13.229,6.075 -21.782,19.403 -21.782,33.956c0,1.725 -1.397,3.125 -3.125,3.125Z" style="fill:#3768b2;fill-rule:nonzero;"/><path d="M94.272,196.006l-38.122,0c-2.987,0 -5.556,-2.112 -6.131,-5.037l-9.066,-45.869c-0.669,-3.387 1.531,-6.675 4.919,-7.344c3.403,-0.668 6.672,1.538 7.344,4.922l8.068,40.828l27.828,0l8.085,-41.89c0.656,-3.388 3.919,-5.597 7.322,-4.953c3.39,0.653 5.606,3.931 4.953,7.322l-9.063,46.956c-0.568,2.94 -3.143,5.065 -6.137,5.065Z" style="fill:#3768b2;fill-rule:nonzero;"/><path d="M78.353,199.131l-6.25,0c-3.45,0 -6.25,-2.8 -6.25,-6.25c0,-3.45 2.8,-6.25 6.25,-6.25l6.25,0c3.45,0 6.25,2.8 6.25,6.25c0,3.45 -2.8,6.25 -6.25,6.25Z" style="fill:#3768b2;fill-rule:nonzero;"/><path d="M85.5,167.278c-0.128,0 -0.259,-0.009 -0.391,-0.025l-22.787,-2.85c-1.713,-0.215 -2.925,-1.778 -2.713,-3.487c0.216,-1.71 1.772,-2.913 3.488,-2.716l22.787,2.85c1.713,0.216 2.928,1.778 2.713,3.491c-0.197,1.581 -1.544,2.737 -3.097,2.737Z" style="fill:#3768b2;fill-rule:nonzero;"/><path d="M83.875,179.569c-0.128,0 -0.259,-0.009 -0.391,-0.025l-19.022,-2.372c-1.712,-0.215 -2.928,-1.778 -2.712,-3.491c0.216,-1.709 1.775,-2.906 3.487,-2.712l19.022,2.375c1.713,0.213 2.925,1.775 2.713,3.487c-0.2,1.582 -1.544,2.738 -3.097,2.738Z" style="fill:#3768b2;fill-rule:nonzero;"/><path d="M64.487,143.4c-1.446,0 -2.746,-1.016 -3.056,-2.49l-10.234,-49.285c-0.353,-1.69 0.734,-3.344 2.425,-3.694c1.675,-0.356 3.341,0.732 3.697,2.422l10.234,49.288c0.35,1.687 -0.734,3.343 -2.425,3.694c-0.216,0.043 -0.428,0.065 -0.641,0.065Z" style="fill:#3768b2;fill-rule:nonzero;"/><path d="M88.634,143.4c-0.209,0 -0.425,-0.022 -0.637,-0.065c-1.691,-0.351 -2.778,-2.007 -2.425,-3.694l10.234,-49.288c0.35,-1.69 2.006,-2.778 3.697,-2.422c1.691,0.35 2.775,2.004 2.425,3.694l-10.234,49.285c-0.31,1.474 -1.61,2.49 -3.06,2.49Z" style="fill:#3768b2;fill-rule:nonzero;"/><path d="M87.959,97.931c-2.728,0 -5.084,-1.912 -6.565,-5.284c-0.085,-0.094 -0.16,-0.194 -0.228,-0.3c-0.144,-0.222 -0.272,-0.384 -0.375,-0.494c-0.103,0.11 -0.232,0.272 -0.375,0.494c-0.053,0.081 -0.11,0.162 -0.172,0.238c-0.066,0.156 -0.132,0.306 -0.203,0.453c-0.019,0.04 -0.041,0.081 -0.06,0.118c-2.022,4.125 -4.818,4.741 -6.315,4.741c-2.685,0 -5.016,-1.862 -6.51,-5.156c-0.115,-0.122 -0.222,-0.256 -0.315,-0.397c-0.141,-0.222 -0.269,-0.378 -0.369,-0.491c-0.103,0.113 -0.231,0.272 -0.375,0.494c-0.072,0.116 -0.153,0.222 -0.241,0.325c-1.487,3.356 -3.837,5.259 -6.553,5.259c-2.812,0 -5.234,-2.037 -6.712,-5.618c-0.313,-0.478 -0.494,-1.047 -0.494,-1.654c0,-1.724 1.319,-3.125 3.044,-3.125c1.309,0 2.64,0.819 3.093,2.047c0.391,1.063 0.803,1.66 1.066,1.944c0.262,-0.284 0.678,-0.881 1.069,-1.944c0.209,-0.565 0.568,-1.043 1.025,-1.397c1.847,-2.362 3.934,-2.74 5.075,-2.74c1.94,0 3.747,0.997 5.147,2.825c0.443,0.341 0.803,0.784 0.993,1.303c0.388,1.044 0.797,1.634 1.06,1.919c0.184,-0.197 0.447,-0.553 0.722,-1.132c0.012,-0.024 0.028,-0.053 0.04,-0.081c0.088,-0.187 0.2,-0.446 0.3,-0.715c0.194,-0.519 0.516,-0.963 0.922,-1.3c1.863,-2.432 3.985,-2.819 5.138,-2.819c1.165,0 3.312,0.394 5.184,2.878c0.409,0.334 0.737,0.766 0.916,1.262c0.39,1.06 0.803,1.657 1.068,1.941c0.263,-0.284 0.675,-0.881 1.066,-1.941c0.206,-0.565 0.569,-1.046 1.025,-1.4c2.872,-3.671 7.663,-3.521 10.431,0.369c0.522,0.556 0.85,1.294 0.85,2.106c0,1.725 -1.328,3.125 -3.056,3.125l-0.144,0c-1.065,0 -2.056,-0.543 -2.634,-1.44c-0.141,-0.222 -0.269,-0.381 -0.372,-0.491c-0.1,0.11 -0.228,0.269 -0.369,0.491c-0.072,0.115 -0.156,0.222 -0.24,0.325c-1.485,3.359 -3.838,5.262 -6.557,5.262Z" style="fill:#3768b2;fill-rule:nonzero;"/></svg>