<?xml version="1.0" encoding="UTF-8" standalone="no"?>
<!DOCTYPE svg PUBLIC "-//W3C//DTD SVG 1.1//EN" "http://www.w3.org/Graphics/SVG/1.1/DTD/svg11.dtd">
<svg width="100%" height="100%" viewBox="0 0 50 80" version="1.1" xmlns="http://www.w3.org/2000/svg" xmlns:xlink="http://www.w3.org/1999/xlink" xml:space="preserve" style="fill-rule:evenodd;clip-rule:evenodd;stroke-linejoin:round;stroke-miterlimit:1.41421;">
    <g transform="matrix(2.5,0,0,2.5,-1305,-767.5)">
        <path d="M532,337C527.582,337 524,333.418 524,329C524,324.582 527.582,321 532,321C536.268,321 540,324.732 540,329C540,333.418 536.418,337 532,337ZM526,315C526,311.687 528.687,309 532,309C535.313,309 538,311.687 538,315L538,321.014C536.327,319.755 534.255,319 532,319C529.746,319 527.673,319.755 526,321.014L526,315ZM540,323.019L540,315C540,310.582 536.418,307 532,307C527.582,307 524,310.582 524,315L524,323.019C522.75,324.688 522,326.754 522,329C522,334.523 526.478,339 532,339C537.522,339 542,334.523 542,329C542,326.754 541.25,324.688 540,323.019ZM532,327C531.447,327 531,327.448 531,328L531,332C531,332.553 531.447,333 532,333C532.553,333 533,332.553 533,332L533,328C533,327.448 532.553,327 532,327Z" style="fill:white;fill-rule:nonzero;"/>
    </g>
</svg>
