<?xml version="1.0" encoding="UTF-8" standalone="no"?>
<!DOCTYPE svg PUBLIC "-//W3C//DTD SVG 1.1//EN" "http://www.w3.org/Graphics/SVG/1.1/DTD/svg11.dtd">
<svg width="100%" height="100%" viewBox="0 0 24 24" version="1.1" xmlns="http://www.w3.org/2000/svg" xmlns:xlink="http://www.w3.org/1999/xlink" xml:space="preserve" style="fill-rule:evenodd;clip-rule:evenodd;stroke-linejoin:round;stroke-miterlimit:1.41421;">
    <g transform="matrix(0.545306,0,0,0.545455,-194.122,-514.909)">
        <path d="M389.488,986C388.234,986 387.014,985.723 385.86,985.177C385.752,985.126 385.641,985.086 385.527,985.057C374.16,979.257 364.74,969.839 358.938,958.473C358.907,958.356 358.865,958.24 358.812,958.129C358.266,956.974 357.988,955.753 357.988,954.5C357.988,949.65 362.235,946 364.988,946C365.348,946 365.586,946.184 365.695,946.293C365.721,946.319 365.765,946.371 365.831,946.477C365.867,946.533 365.905,946.588 365.946,946.641L372.531,955.107C372.581,955.173 372.637,955.234 372.695,955.293C372.805,955.402 372.988,955.641 372.988,956C372.988,956.177 372.939,956.344 372.843,956.498L370.615,958.709C370.604,958.72 370.595,958.729 370.584,958.74C369.776,959.5 369.316,960.553 369.316,961.656C369.316,962.689 369.717,963.674 370.415,964.412C370.439,964.451 370.465,964.49 370.493,964.528C372.951,967.925 375.972,970.934 379.471,973.473C379.498,973.492 379.525,973.511 379.553,973.529C380.292,974.238 381.284,974.646 382.322,974.646C383.367,974.646 384.373,974.229 385.12,973.494C385.159,973.461 385.196,973.426 385.232,973.389L387.472,971.132C387.629,971.034 387.797,970.984 387.973,970.984C388.332,970.984 388.57,971.168 388.68,971.277C388.738,971.336 388.8,971.391 388.865,971.443L397.332,978.027C397.387,978.069 397.443,978.108 397.501,978.145C397.607,978.211 397.656,978.254 397.68,978.277C397.789,978.387 397.973,978.624 397.973,978.984C397.973,979.052 397.976,979.118 397.983,979.186C397.827,981.939 394.231,986 389.488,986ZM399.973,978.984C399.973,978.156 399.637,977.406 399.094,976.863C398.935,976.703 398.753,976.568 398.56,976.448L390.094,969.863C389.551,969.32 388.801,968.984 387.973,968.984C387.294,968.984 386.676,969.219 386.175,969.6L383.812,971.98L383.807,971.975C383.44,972.384 382.914,972.646 382.322,972.646C381.646,972.646 381.051,972.309 380.687,971.795C380.675,971.814 380.658,971.833 380.646,971.854C377.377,969.482 374.481,966.628 372.113,963.356C372.137,963.341 372.157,963.323 372.181,963.308C371.659,962.943 371.316,962.341 371.316,961.656C371.316,961.044 371.596,960.502 372.026,960.133L372.023,960.129L374.374,957.796C374.756,957.297 374.988,956.679 374.988,956C374.988,955.172 374.652,954.422 374.109,953.879L367.524,945.412C367.404,945.221 367.269,945.039 367.109,944.879C366.566,944.336 365.816,944 364.988,944C360.988,944 355.988,948.701 355.988,954.5C355.988,956.106 356.36,957.623 357.004,958.984L356.972,959.018C362.988,971 372.988,981 384.972,987.017L385.004,986.984C386.365,987.629 387.882,988 389.488,988C395.287,988 399.988,983 399.988,979C399.988,978.995 399.987,978.99 399.987,978.984L399.973,978.984ZM380,966C381.104,966 382,965.104 382,964.001C382,962.896 381.104,962 380,962C378.896,962 378,962.896 378,964.001C378,965.104 378.896,966 380,966ZM380,956C384.418,956 388,959.582 388,964.001C388,964.553 388.448,965 389,965C389.552,965 390,964.553 390,964.001C390,958.478 385.523,954 380,954C379.448,954 379,954.447 379,955C379,955.553 379.448,956 380,956ZM380,946C389.941,946 398,954.06 398,964.001C398,964.553 398.448,965 399,965C399.552,965 400,964.553 400,964.001C400,952.954 391.046,944 380,944C379.448,944 379,944.448 379,945C379,945.553 379.448,946 380,946Z" style="fill:rgb(7,104,216);fill-rule:nonzero;"/>
    </g>
</svg>
