<?xml version="1.0" encoding="UTF-8" standalone="no"?><!DOCTYPE svg PUBLIC "-//W3C//DTD SVG 1.1//EN" "http://www.w3.org/Graphics/SVG/1.1/DTD/svg11.dtd"><svg width="100%" height="100%" viewBox="0 0 9 9" version="1.1" xmlns="http://www.w3.org/2000/svg" xmlns:xlink="http://www.w3.org/1999/xlink" xml:space="preserve" style="fill-rule:evenodd;clip-rule:evenodd;stroke-linejoin:round;stroke-miterlimit:1.41421;"><rect id="Artboard1" x="0" y="0" width="9" height="9" style="fill:none;"/><path id="add-icon" d="M3.439,4.5l-3.182,-3.182c-0.292,-0.293 -0.292,-0.768 0,-1.061c0.293,-0.292 0.768,-0.292 1.061,0l3.182,3.182l3.182,-3.182c0.293,-0.292 0.768,-0.292 1.061,0c0.292,0.293 0.292,0.768 0,1.061l-3.182,3.182l3.182,3.182c0.292,0.293 0.292,0.768 0,1.061c-0.293,0.292 -0.768,0.292 -1.061,0l-3.182,-3.182l-3.182,3.182c-0.293,0.292 -0.768,0.292 -1.061,0c-0.292,-0.293 -0.292,-0.768 0,-1.061l3.182,-3.182Z" style="fill:#d75b2b;"/></svg>